<svg width="309" height="162" viewBox="0 0 309 162" fill="none" xmlns="http://www.w3.org/2000/svg">
<path d="M1.46479 46.0657C1.46479 61.4597 0.858493 82.0645 12.6881 93.8941C16.7195 97.9256 22.4133 95.7375 25.4653 92.6855C32.4373 85.7135 35.6526 79.3155 35.6526 69.3756C35.6526 66.8724 35.3215 64.0884 35.6526 61.6056C35.9363 59.4781 42.159 70.4632 42.6455 71.7066C46.4702 81.4808 52.6266 82.4316 61.2934 87.2465C80.3739 97.8468 74.5023 53.7546 74.5023 47.6197" stroke="black" stroke-linecap="round" stroke-linejoin="round"/>
<path d="M100.92 44.5117C92.92 54.3943 84.2601 72.5819 99.2799 81.0305C108.102 85.9932 120.694 87.9244 125.784 77.1455C131.357 65.3431 127.979 44.6444 116.46 37.6051C110.227 33.7962 94.4178 32.939 91.5962 41.4037" stroke="black" stroke-linecap="round" stroke-linejoin="round"/>
<path d="M136.662 33.6338C144.292 39.1695 149.95 44.9366 153.411 53.8357C155.08 58.1295 155.508 63.9707 158.763 67.4763C164.631 73.7953 169.494 68.0328 173.958 63.0733C180.569 55.7275 182.14 47.7952 183.195 38.2958C183.525 35.3334 182.729 32.5878 181.728 29.8352C179.977 25.0214 188.417 33.0045 189.152 33.9791C201.68 50.5915 212.863 78.26 228.347 48.3967C237.45 30.8408 228.024 15.8923 220.577 1" stroke="black" stroke-linecap="round" stroke-linejoin="round"/>
<path d="M6.12676 120.657C14.3835 119.281 25.4735 117.543 32.3719 112.369C42.3482 104.887 19.5831 133.814 12.3427 143.967C8.70441 149.069 -5.05847 161.583 7.42175 160.975C18.3966 160.439 29.4221 159.315 40.3145 157.953" stroke="black" stroke-linecap="round" stroke-linejoin="round"/>
<path d="M54.3005 125.319C37.2313 148.789 71.4939 154.52 74.157 141.204C76.4688 129.646 62.2821 111.122 51.1925 122.211" stroke="black" stroke-linecap="round" stroke-linejoin="round"/>
<path d="M99.3662 112.887C92.0397 112.887 76.5854 110.035 76.747 121.348C76.8696 129.932 82.8669 147.506 93.2366 148.543C104.76 149.695 107.473 137.225 107.05 128.341C106.845 124.04 103.934 100.549 97.8122 106.671" stroke="black" stroke-linecap="round" stroke-linejoin="round"/>
<path d="M114.906 105.117C118.315 116.338 119.568 126.544 119.568 138.183C119.568 143.881 119.851 131.784 119.913 131.19C121.099 119.929 125.719 109.543 130.36 99.3331C136.893 84.9599 140.574 105.682 141.238 111.765C144.923 145.544 148.047 103.87 154.619 108.053C160.039 111.502 167.267 138.701 164.634 143.967" stroke="black" stroke-linecap="round" stroke-linejoin="round"/>
<path d="M205.038 102.009C211.643 111.786 211.254 121.715 211.254 133.089" stroke="black" stroke-linecap="round" stroke-linejoin="round"/>
<path d="M203.484 75.5916C201.092 87.8503 200.515 81.3449 205.815 80.1672C211.804 78.8361 210.322 75.5916 205.038 75.5916" stroke="black" stroke-linecap="round" stroke-linejoin="round"/>
<path d="M233.009 77.1455C237.725 89.327 240.779 105.047 240.779 118.326C240.779 130.324 239.028 93.3084 244.233 82.4982C248.948 72.7054 257.779 78.2563 263.226 84.1385C271.811 93.4106 271.263 104.883 274.967 115.995" stroke="black" stroke-linecap="round" stroke-linejoin="round"/>
<path d="M288.953 81.8075C278.071 67.6278 274.967 54.2594 274.967 36.8281C274.967 27.762 277.377 18.0057 283.428 32.8568C287.232 42.1935 285.845 52.9292 285.845 62.8143C285.845 70.7838 287.399 79.3073 287.399 86.4695" stroke="black" stroke-linecap="round" stroke-linejoin="round"/>
<path d="M293.615 108.225C292.79 115.104 292.915 122.738 301.385 123.679C308.048 124.419 307.601 120.147 307.601 114.787C307.601 105.518 305.497 104.478 296.723 106.671" stroke="black" stroke-linecap="round" stroke-linejoin="round"/>
</svg>
